<svg width="854" height="948" viewBox="0 0 854 948" fill="none" xmlns="http://www.w3.org/2000/svg">
<g filter="url(#filter0_d_12_4838)">
<path fill-rule="evenodd" clip-rule="evenodd" d="M664.189 6.04877C843.262 -25.5266 1015.37 69.684 1088.41 227.197C1102.53 255.085 1121.6 281.985 1139.14 300.535C1182.71 344.622 1213.79 401.95 1225.36 467.614C1255.67 639.484 1140.91 803.381 969.038 833.686C958.83 835.486 948.65 836.774 938.524 837.569C873.797 843.387 865.528 846.298 814.431 884.106C775.203 914.492 728.223 936.058 675.963 945.273C570.992 963.782 468.996 928.178 398.593 858.5C344.132 805.957 334.193 801.787 266.125 793.946C137.883 782.296 28.1482 686.285 4.71365 553.381C-23.338 394.292 82.8887 242.584 241.978 214.532C254.3 212.36 266.578 210.993 278.757 210.393C356.35 205.505 371.8 202.631 444.062 126.193C500.296 65.2475 576.22 21.5601 664.189 6.04877Z" fill="#373737"/>
</g>
<defs>
<filter id="filter0_d_12_4838" x="0.221008" y="0.0202637" width="1250" height="970.107" filterUnits="userSpaceOnUse" color-interpolation-filters="sRGB">
<feFlood flood-opacity="0" result="BackgroundImageFix"/>
<feColorMatrix in="SourceAlpha" type="matrix" values="0 0 0 0 0 0 0 0 0 0 0 0 0 0 0 0 0 0 127 0" result="hardAlpha"/>
<feOffset dx="10" dy="10"/>
<feGaussianBlur stdDeviation="5"/>
<feComposite in2="hardAlpha" operator="out"/>
<feColorMatrix type="matrix" values="0 0 0 0 0 0 0 0 0 0 0 0 0 0 0 0 0 0 0.25 0"/>
<feBlend mode="normal" in2="BackgroundImageFix" result="effect1_dropShadow_12_4838"/>
<feBlend mode="normal" in="SourceGraphic" in2="effect1_dropShadow_12_4838" result="shape"/>
</filter>
</defs>
</svg>
