<svg width="425" height="127" viewBox="0 0 425 127" fill="none" xmlns="http://www.w3.org/2000/svg">
<path d="M44.0312 11.3828H45.5312C45.4531 12.1016 45.2474 12.7448 44.9141 13.3125C44.5807 13.8802 44.1094 14.3307 43.5 14.6641C42.8906 14.9922 42.1302 15.1562 41.2188 15.1562C40.5521 15.1562 39.9453 15.0312 39.3984 14.7812C38.8568 14.5312 38.3906 14.1771 38 13.7188C37.6094 13.2552 37.3073 12.7005 37.0938 12.0547C36.8854 11.4036 36.7812 10.6797 36.7812 9.88281V8.75C36.7812 7.95312 36.8854 7.23177 37.0938 6.58594C37.3073 5.9349 37.612 5.3776 38.0078 4.91406C38.4089 4.45052 38.8906 4.09375 39.4531 3.84375C40.0156 3.59375 40.6484 3.46875 41.3516 3.46875C42.2109 3.46875 42.9375 3.63021 43.5312 3.95312C44.125 4.27604 44.5859 4.72396 44.9141 5.29688C45.2474 5.86458 45.4531 6.52344 45.5312 7.27344H44.0312C43.9583 6.74219 43.8229 6.28646 43.625 5.90625C43.4271 5.52083 43.1458 5.22396 42.7812 5.01562C42.4167 4.80729 41.9401 4.70312 41.3516 4.70312C40.8464 4.70312 40.401 4.79948 40.0156 4.99219C39.6354 5.1849 39.3151 5.45833 39.0547 5.8125C38.7995 6.16667 38.6068 6.59115 38.4766 7.08594C38.3464 7.58073 38.2812 8.13021 38.2812 8.73438V9.88281C38.2812 10.4401 38.3385 10.9635 38.4531 11.4531C38.5729 11.9427 38.7526 12.3724 38.9922 12.7422C39.2318 13.112 39.5365 13.4036 39.9062 13.6172C40.276 13.8255 40.7135 13.9297 41.2188 13.9297C41.8594 13.9297 42.3698 13.8281 42.75 13.625C43.1302 13.4219 43.4167 13.1302 43.6094 12.75C43.8073 12.3698 43.9479 11.9141 44.0312 11.3828ZM56.8484 12.125C56.8484 11.8594 56.8068 11.625 56.7234 11.4219C56.6453 11.2135 56.5047 11.026 56.3016 10.8594C56.1036 10.6927 55.8276 10.5339 55.4734 10.3828C55.1245 10.2318 54.6818 10.0781 54.1453 9.92188C53.5828 9.75521 53.075 9.57031 52.6219 9.36719C52.1688 9.15885 51.7807 8.92188 51.4578 8.65625C51.1349 8.39062 50.8875 8.08594 50.7156 7.74219C50.5438 7.39844 50.4578 7.00521 50.4578 6.5625C50.4578 6.11979 50.549 5.71094 50.7313 5.33594C50.9135 4.96094 51.174 4.63542 51.5125 4.35938C51.8563 4.07812 52.2651 3.85938 52.7391 3.70312C53.213 3.54688 53.7417 3.46875 54.325 3.46875C55.1792 3.46875 55.9031 3.63281 56.4969 3.96094C57.0958 4.28385 57.5516 4.70833 57.8641 5.23438C58.1766 5.75521 58.3328 6.3125 58.3328 6.90625H56.8328C56.8328 6.47917 56.7417 6.10156 56.5594 5.77344C56.3771 5.4401 56.101 5.17969 55.7313 4.99219C55.3615 4.79948 54.8927 4.70312 54.325 4.70312C53.7885 4.70312 53.3458 4.78385 52.9969 4.94531C52.6479 5.10677 52.3875 5.32552 52.2156 5.60156C52.049 5.8776 51.9656 6.19271 51.9656 6.54688C51.9656 6.78646 52.0151 7.00521 52.1141 7.20312C52.2182 7.39583 52.3771 7.57552 52.5906 7.74219C52.8094 7.90885 53.0854 8.0625 53.4188 8.20312C53.7573 8.34375 54.1609 8.47917 54.6297 8.60938C55.2755 8.79167 55.8328 8.99479 56.3016 9.21875C56.7703 9.44271 57.1557 9.69531 57.4578 9.97656C57.7651 10.2526 57.9917 10.5677 58.1375 10.9219C58.2885 11.2708 58.3641 11.6667 58.3641 12.1094C58.3641 12.5729 58.2703 12.9922 58.0828 13.3672C57.8953 13.7422 57.6271 14.0625 57.2781 14.3281C56.9292 14.5938 56.5099 14.7995 56.0203 14.9453C55.5359 15.0859 54.9943 15.1562 54.3953 15.1562C53.8693 15.1562 53.351 15.0833 52.8406 14.9375C52.3354 14.7917 51.8745 14.5729 51.4578 14.2812C51.0464 13.9896 50.7156 13.6302 50.4656 13.2031C50.2208 12.7708 50.0984 12.2708 50.0984 11.7031H51.5984C51.5984 12.0938 51.674 12.4297 51.825 12.7109C51.976 12.987 52.1818 13.2161 52.4422 13.3984C52.7078 13.5807 53.0073 13.7161 53.3406 13.8047C53.6792 13.888 54.0307 13.9297 54.3953 13.9297C54.9214 13.9297 55.3667 13.8568 55.7313 13.7109C56.0958 13.5651 56.3719 13.3568 56.5594 13.0859C56.7521 12.8151 56.8484 12.4948 56.8484 12.125ZM69.5484 12.125C69.5484 11.8594 69.5068 11.625 69.4234 11.4219C69.3453 11.2135 69.2047 11.026 69.0016 10.8594C68.8036 10.6927 68.5276 10.5339 68.1734 10.3828C67.8245 10.2318 67.3818 10.0781 66.8453 9.92188C66.2828 9.75521 65.775 9.57031 65.3219 9.36719C64.8688 9.15885 64.4807 8.92188 64.1578 8.65625C63.8349 8.39062 63.5875 8.08594 63.4156 7.74219C63.2438 7.39844 63.1578 7.00521 63.1578 6.5625C63.1578 6.11979 63.249 5.71094 63.4313 5.33594C63.6135 4.96094 63.874 4.63542 64.2125 4.35938C64.5563 4.07812 64.9651 3.85938 65.4391 3.70312C65.913 3.54688 66.4417 3.46875 67.025 3.46875C67.8792 3.46875 68.6031 3.63281 69.1969 3.96094C69.7958 4.28385 70.2516 4.70833 70.5641 5.23438C70.8766 5.75521 71.0328 6.3125 71.0328 6.90625H69.5328C69.5328 6.47917 69.4417 6.10156 69.2594 5.77344C69.0771 5.4401 68.801 5.17969 68.4313 4.99219C68.0615 4.79948 67.5927 4.70312 67.025 4.70312C66.4885 4.70312 66.0458 4.78385 65.6969 4.94531C65.3479 5.10677 65.0875 5.32552 64.9156 5.60156C64.749 5.8776 64.6656 6.19271 64.6656 6.54688C64.6656 6.78646 64.7151 7.00521 64.8141 7.20312C64.9182 7.39583 65.0771 7.57552 65.2906 7.74219C65.5094 7.90885 65.7854 8.0625 66.1188 8.20312C66.4573 8.34375 66.8609 8.47917 67.3297 8.60938C67.9755 8.79167 68.5328 8.99479 69.0016 9.21875C69.4703 9.44271 69.8557 9.69531 70.1578 9.97656C70.4651 10.2526 70.6917 10.5677 70.8375 10.9219C70.9885 11.2708 71.0641 11.6667 71.0641 12.1094C71.0641 12.5729 70.9703 12.9922 70.7828 13.3672C70.5953 13.7422 70.3271 14.0625 69.9781 14.3281C69.6292 14.5938 69.2099 14.7995 68.7203 14.9453C68.2359 15.0859 67.6943 15.1562 67.0953 15.1562C66.5693 15.1562 66.051 15.0833 65.5406 14.9375C65.0354 14.7917 64.5745 14.5729 64.1578 14.2812C63.7464 13.9896 63.4156 13.6302 63.1656 13.2031C62.9208 12.7708 62.7984 12.2708 62.7984 11.7031H64.2984C64.2984 12.0938 64.374 12.4297 64.525 12.7109C64.676 12.987 64.8818 13.2161 65.1422 13.3984C65.4078 13.5807 65.7073 13.7161 66.0406 13.8047C66.3792 13.888 66.7307 13.9297 67.0953 13.9297C67.6214 13.9297 68.0667 13.8568 68.4313 13.7109C68.7958 13.5651 69.0719 13.3568 69.2594 13.0859C69.4521 12.8151 69.5484 12.4948 69.5484 12.125ZM140.966 8.51562V9.74219H134.809V8.51562H140.966ZM135.044 3.625V15H133.536V3.625H135.044ZM142.278 3.625V15H140.778V3.625H142.278ZM152.127 3.625V15H150.642V3.625H152.127ZM155.783 3.625V4.85938H146.994V3.625H155.783ZM161.147 3.625H162.608L166.334 12.8984L170.053 3.625H171.522L166.897 15H165.756L161.147 3.625ZM160.67 3.625H161.959L162.17 10.5625V15H160.67V3.625ZM170.702 3.625H171.991V15H170.491V10.5625L170.702 3.625ZM184.738 13.7734V15H179.05V13.7734H184.738ZM179.347 3.625V15H177.839V3.625H179.347ZM239.845 3.625H243.611C244.465 3.625 245.186 3.75521 245.775 4.01562C246.369 4.27604 246.819 4.66146 247.127 5.17188C247.439 5.67708 247.595 6.29948 247.595 7.03906C247.595 7.5599 247.489 8.03646 247.275 8.46875C247.067 8.89583 246.765 9.26042 246.369 9.5625C245.978 9.85938 245.509 10.0807 244.962 10.2266L244.541 10.3906H241.002L240.986 9.16406H243.658C244.199 9.16406 244.65 9.07031 245.009 8.88281C245.369 8.6901 245.64 8.43229 245.822 8.10938C246.004 7.78646 246.095 7.42969 246.095 7.03906C246.095 6.60156 246.009 6.21875 245.837 5.89062C245.666 5.5625 245.395 5.3099 245.025 5.13281C244.66 4.95052 244.189 4.85938 243.611 4.85938H241.353V15H239.845V3.625ZM246.494 15L243.728 9.84375L245.298 9.83594L248.103 14.9062V15H246.494ZM256.194 15.1562C255.605 15.1562 255.071 15.0573 254.592 14.8594C254.118 14.6562 253.709 14.3724 253.366 14.0078C253.027 13.6432 252.767 13.2109 252.584 12.7109C252.402 12.2109 252.311 11.6641 252.311 11.0703V10.7422C252.311 10.0547 252.413 9.44271 252.616 8.90625C252.819 8.36458 253.095 7.90625 253.444 7.53125C253.793 7.15625 254.189 6.8724 254.631 6.67969C255.074 6.48698 255.532 6.39062 256.006 6.39062C256.61 6.39062 257.131 6.49479 257.569 6.70312C258.011 6.91146 258.373 7.20312 258.655 7.57812C258.936 7.94792 259.144 8.38542 259.28 8.89062C259.415 9.39062 259.483 9.9375 259.483 10.5312V11.1797H253.17V10H258.038V9.89062C258.017 9.51562 257.939 9.15104 257.803 8.79688C257.673 8.44271 257.465 8.15104 257.178 7.92188C256.892 7.69271 256.501 7.57812 256.006 7.57812C255.678 7.57812 255.376 7.64844 255.1 7.78906C254.824 7.92448 254.587 8.1276 254.389 8.39844C254.191 8.66927 254.038 9 253.928 9.39062C253.819 9.78125 253.764 10.2318 253.764 10.7422V11.0703C253.764 11.4714 253.819 11.849 253.928 12.2031C254.043 12.5521 254.207 12.8594 254.42 13.125C254.639 13.3906 254.902 13.599 255.209 13.75C255.522 13.901 255.876 13.9766 256.272 13.9766C256.782 13.9766 257.215 13.8724 257.569 13.6641C257.923 13.4557 258.233 13.1771 258.498 12.8281L259.373 13.5234C259.191 13.7995 258.959 14.0625 258.678 14.3125C258.397 14.5625 258.051 14.7656 257.639 14.9219C257.233 15.0781 256.751 15.1562 256.194 15.1562ZM269.355 13.5547V9.20312C269.355 8.86979 269.287 8.58073 269.152 8.33594C269.021 8.08594 268.823 7.89323 268.558 7.75781C268.292 7.6224 267.964 7.55469 267.573 7.55469C267.209 7.55469 266.889 7.61719 266.612 7.74219C266.342 7.86719 266.128 8.03125 265.972 8.23438C265.821 8.4375 265.745 8.65625 265.745 8.89062H264.3C264.3 8.58854 264.378 8.28906 264.534 7.99219C264.691 7.69531 264.915 7.42708 265.206 7.1875C265.503 6.94271 265.857 6.75 266.269 6.60938C266.685 6.46354 267.149 6.39062 267.659 6.39062C268.274 6.39062 268.816 6.49479 269.284 6.70312C269.758 6.91146 270.128 7.22656 270.394 7.64844C270.665 8.0651 270.8 8.58854 270.8 9.21875V13.1562C270.8 13.4375 270.823 13.737 270.87 14.0547C270.922 14.3724 270.998 14.6458 271.097 14.875V15H269.589C269.516 14.8333 269.459 14.612 269.417 14.3359C269.376 14.0547 269.355 13.7943 269.355 13.5547ZM269.605 9.875L269.62 10.8906H268.159C267.748 10.8906 267.381 10.9245 267.058 10.9922C266.735 11.0547 266.464 11.151 266.245 11.2812C266.027 11.4115 265.86 11.5755 265.745 11.7734C265.631 11.9661 265.573 12.1927 265.573 12.4531C265.573 12.7188 265.633 12.9609 265.753 13.1797C265.873 13.3984 266.053 13.5729 266.292 13.7031C266.537 13.8281 266.836 13.8906 267.191 13.8906C267.633 13.8906 268.024 13.7969 268.362 13.6094C268.701 13.4219 268.969 13.1927 269.167 12.9219C269.37 12.651 269.48 12.388 269.495 12.1328L270.112 12.8281C270.076 13.0469 269.977 13.2891 269.816 13.5547C269.654 13.8203 269.438 14.0755 269.167 14.3203C268.902 14.5599 268.584 14.7604 268.214 14.9219C267.849 15.0781 267.438 15.1562 266.98 15.1562C266.407 15.1562 265.904 15.0443 265.472 14.8203C265.045 14.5964 264.711 14.2969 264.472 13.9219C264.237 13.5417 264.12 13.1172 264.12 12.6484C264.12 12.1953 264.209 11.7969 264.386 11.4531C264.563 11.1042 264.818 10.8151 265.152 10.5859C265.485 10.3516 265.886 10.1745 266.355 10.0547C266.823 9.9349 267.347 9.875 267.925 9.875H269.605ZM279.656 13.9688C280 13.9688 280.318 13.8984 280.609 13.7578C280.901 13.6172 281.141 13.4245 281.328 13.1797C281.516 12.9297 281.622 12.6458 281.648 12.3281H283.023C282.997 12.8281 282.828 13.2943 282.516 13.7266C282.208 14.1536 281.805 14.5 281.305 14.7656C280.805 15.026 280.255 15.1562 279.656 15.1562C279.021 15.1562 278.466 15.0443 277.992 14.8203C277.523 14.5964 277.133 14.2891 276.82 13.8984C276.513 13.5078 276.281 13.0599 276.125 12.5547C275.974 12.0443 275.898 11.5052 275.898 10.9375V10.6094C275.898 10.0417 275.974 9.50521 276.125 9C276.281 8.48958 276.513 8.03906 276.82 7.64844C277.133 7.25781 277.523 6.95052 277.992 6.72656C278.466 6.5026 279.021 6.39062 279.656 6.39062C280.318 6.39062 280.896 6.52604 281.391 6.79688C281.885 7.0625 282.273 7.42708 282.555 7.89062C282.841 8.34896 282.997 8.86979 283.023 9.45312H281.648C281.622 9.10417 281.523 8.78906 281.352 8.50781C281.185 8.22656 280.956 8.0026 280.664 7.83594C280.378 7.66406 280.042 7.57812 279.656 7.57812C279.214 7.57812 278.841 7.66667 278.539 7.84375C278.242 8.01562 278.005 8.25 277.828 8.54688C277.656 8.83854 277.531 9.16406 277.453 9.52344C277.38 9.8776 277.344 10.2396 277.344 10.6094V10.9375C277.344 11.3073 277.38 11.6719 277.453 12.0312C277.526 12.3906 277.648 12.7161 277.82 13.0078C277.997 13.2995 278.234 13.5339 278.531 13.7109C278.833 13.8828 279.208 13.9688 279.656 13.9688ZM291.388 6.54688V7.65625H286.817V6.54688H291.388ZM288.364 4.49219H289.809V12.9062C289.809 13.1927 289.854 13.4089 289.942 13.5547C290.031 13.7005 290.145 13.7969 290.286 13.8438C290.427 13.8906 290.578 13.9141 290.739 13.9141C290.859 13.9141 290.984 13.9036 291.114 13.8828C291.249 13.8568 291.351 13.8359 291.419 13.8203L291.427 15C291.312 15.0365 291.161 15.0703 290.973 15.1016C290.791 15.138 290.57 15.1562 290.309 15.1562C289.955 15.1562 289.63 15.0859 289.333 14.9453C289.036 14.8047 288.799 14.5703 288.622 14.2422C288.45 13.9089 288.364 13.4609 288.364 12.8984V4.49219ZM322.781 11.6797V3.625H324.281V11.6797C324.281 12.4297 324.128 13.0625 323.82 13.5781C323.513 14.0938 323.089 14.487 322.547 14.7578C322.01 15.0234 321.393 15.1562 320.695 15.1562C319.997 15.1562 319.378 15.0365 318.836 14.7969C318.294 14.5573 317.87 14.1927 317.562 13.7031C317.255 13.2135 317.102 12.5964 317.102 11.8516H318.609C318.609 12.3307 318.698 12.724 318.875 13.0312C319.052 13.3385 319.297 13.5651 319.609 13.7109C319.927 13.8568 320.289 13.9297 320.695 13.9297C321.091 13.9297 321.445 13.8464 321.758 13.6797C322.076 13.5078 322.326 13.2552 322.508 12.9219C322.69 12.5833 322.781 12.1693 322.781 11.6797ZM334.802 13.5547V9.20312C334.802 8.86979 334.734 8.58073 334.598 8.33594C334.468 8.08594 334.27 7.89323 334.005 7.75781C333.739 7.6224 333.411 7.55469 333.02 7.55469C332.656 7.55469 332.335 7.61719 332.059 7.74219C331.789 7.86719 331.575 8.03125 331.419 8.23438C331.268 8.4375 331.192 8.65625 331.192 8.89062H329.747C329.747 8.58854 329.825 8.28906 329.981 7.99219C330.138 7.69531 330.361 7.42708 330.653 7.1875C330.95 6.94271 331.304 6.75 331.716 6.60938C332.132 6.46354 332.596 6.39062 333.106 6.39062C333.721 6.39062 334.263 6.49479 334.731 6.70312C335.205 6.91146 335.575 7.22656 335.841 7.64844C336.111 8.0651 336.247 8.58854 336.247 9.21875V13.1562C336.247 13.4375 336.27 13.737 336.317 14.0547C336.369 14.3724 336.445 14.6458 336.544 14.875V15H335.036C334.963 14.8333 334.906 14.612 334.864 14.3359C334.822 14.0547 334.802 13.7943 334.802 13.5547ZM335.052 9.875L335.067 10.8906H333.606C333.195 10.8906 332.828 10.9245 332.505 10.9922C332.182 11.0547 331.911 11.151 331.692 11.2812C331.473 11.4115 331.307 11.5755 331.192 11.7734C331.078 11.9661 331.02 12.1927 331.02 12.4531C331.02 12.7188 331.08 12.9609 331.2 13.1797C331.32 13.3984 331.499 13.5729 331.739 13.7031C331.984 13.8281 332.283 13.8906 332.638 13.8906C333.08 13.8906 333.471 13.7969 333.809 13.6094C334.148 13.4219 334.416 13.1927 334.614 12.9219C334.817 12.651 334.927 12.388 334.942 12.1328L335.559 12.8281C335.523 13.0469 335.424 13.2891 335.263 13.5547C335.101 13.8203 334.885 14.0755 334.614 14.3203C334.348 14.5599 334.031 14.7604 333.661 14.9219C333.296 15.0781 332.885 15.1562 332.427 15.1562C331.854 15.1562 331.351 15.0443 330.919 14.8203C330.492 14.5964 330.158 14.2969 329.919 13.9219C329.684 13.5417 329.567 13.1172 329.567 12.6484C329.567 12.1953 329.656 11.7969 329.833 11.4531C330.01 11.1042 330.265 10.8151 330.598 10.5859C330.932 10.3516 331.333 10.1745 331.802 10.0547C332.27 9.9349 332.794 9.875 333.372 9.875H335.052ZM344.166 13.6953L346.478 6.54688H347.955L344.916 15H343.947L344.166 13.6953ZM342.236 6.54688L344.619 13.7344L344.783 15H343.814L340.752 6.54688H342.236ZM357.405 13.5547V9.20312C357.405 8.86979 357.337 8.58073 357.202 8.33594C357.071 8.08594 356.873 7.89323 356.608 7.75781C356.342 7.6224 356.014 7.55469 355.623 7.55469C355.259 7.55469 354.939 7.61719 354.663 7.74219C354.392 7.86719 354.178 8.03125 354.022 8.23438C353.871 8.4375 353.795 8.65625 353.795 8.89062H352.35C352.35 8.58854 352.428 8.28906 352.584 7.99219C352.741 7.69531 352.965 7.42708 353.256 7.1875C353.553 6.94271 353.907 6.75 354.319 6.60938C354.735 6.46354 355.199 6.39062 355.709 6.39062C356.324 6.39062 356.866 6.49479 357.334 6.70312C357.808 6.91146 358.178 7.22656 358.444 7.64844C358.715 8.0651 358.85 8.58854 358.85 9.21875V13.1562C358.85 13.4375 358.873 13.737 358.92 14.0547C358.972 14.3724 359.048 14.6458 359.147 14.875V15H357.639C357.566 14.8333 357.509 14.612 357.467 14.3359C357.426 14.0547 357.405 13.7943 357.405 13.5547ZM357.655 9.875L357.67 10.8906H356.209C355.798 10.8906 355.431 10.9245 355.108 10.9922C354.785 11.0547 354.514 11.151 354.295 11.2812C354.077 11.4115 353.91 11.5755 353.795 11.7734C353.681 11.9661 353.623 12.1927 353.623 12.4531C353.623 12.7188 353.683 12.9609 353.803 13.1797C353.923 13.3984 354.103 13.5729 354.342 13.7031C354.587 13.8281 354.886 13.8906 355.241 13.8906C355.683 13.8906 356.074 13.7969 356.413 13.6094C356.751 13.4219 357.019 13.1927 357.217 12.9219C357.42 12.651 357.53 12.388 357.545 12.1328L358.163 12.8281C358.126 13.0469 358.027 13.2891 357.866 13.5547C357.704 13.8203 357.488 14.0755 357.217 14.3203C356.952 14.5599 356.634 14.7604 356.264 14.9219C355.899 15.0781 355.488 15.1562 355.03 15.1562C354.457 15.1562 353.954 15.0443 353.522 14.8203C353.095 14.5964 352.761 14.2969 352.522 13.9219C352.288 13.5417 352.17 13.1172 352.17 12.6484C352.17 12.1953 352.259 11.7969 352.436 11.4531C352.613 11.1042 352.868 10.8151 353.202 10.5859C353.535 10.3516 353.936 10.1745 354.405 10.0547C354.873 9.9349 355.397 9.875 355.975 9.875H357.655ZM370.605 12.125C370.605 11.8594 370.563 11.625 370.48 11.4219C370.402 11.2135 370.261 11.026 370.058 10.8594C369.86 10.6927 369.584 10.5339 369.23 10.3828C368.881 10.2318 368.438 10.0781 367.902 9.92188C367.339 9.75521 366.831 9.57031 366.378 9.36719C365.925 9.15885 365.537 8.92188 365.214 8.65625C364.891 8.39062 364.644 8.08594 364.472 7.74219C364.3 7.39844 364.214 7.00521 364.214 6.5625C364.214 6.11979 364.305 5.71094 364.487 5.33594C364.67 4.96094 364.93 4.63542 365.269 4.35938C365.612 4.07812 366.021 3.85938 366.495 3.70312C366.969 3.54688 367.498 3.46875 368.081 3.46875C368.935 3.46875 369.659 3.63281 370.253 3.96094C370.852 4.28385 371.308 4.70833 371.62 5.23438C371.933 5.75521 372.089 6.3125 372.089 6.90625H370.589C370.589 6.47917 370.498 6.10156 370.316 5.77344C370.133 5.4401 369.857 5.17969 369.487 4.99219C369.118 4.79948 368.649 4.70312 368.081 4.70312C367.545 4.70312 367.102 4.78385 366.753 4.94531C366.404 5.10677 366.144 5.32552 365.972 5.60156C365.805 5.8776 365.722 6.19271 365.722 6.54688C365.722 6.78646 365.771 7.00521 365.87 7.20312C365.974 7.39583 366.133 7.57552 366.347 7.74219C366.566 7.90885 366.842 8.0625 367.175 8.20312C367.514 8.34375 367.917 8.47917 368.386 8.60938C369.032 8.79167 369.589 8.99479 370.058 9.21875C370.527 9.44271 370.912 9.69531 371.214 9.97656C371.521 10.2526 371.748 10.5677 371.894 10.9219C372.045 11.2708 372.12 11.6667 372.12 12.1094C372.12 12.5729 372.027 12.9922 371.839 13.3672C371.652 13.7422 371.383 14.0625 371.034 14.3281C370.685 14.5938 370.266 14.7995 369.777 14.9453C369.292 15.0859 368.751 15.1562 368.152 15.1562C367.626 15.1562 367.107 15.0833 366.597 14.9375C366.092 14.7917 365.631 14.5729 365.214 14.2812C364.803 13.9896 364.472 13.6302 364.222 13.2031C363.977 12.7708 363.855 12.2708 363.855 11.7031H365.355C365.355 12.0938 365.43 12.4297 365.581 12.7109C365.732 12.987 365.938 13.2161 366.198 13.3984C366.464 13.5807 366.764 13.7161 367.097 13.8047C367.435 13.888 367.787 13.9297 368.152 13.9297C368.678 13.9297 369.123 13.8568 369.487 13.7109C369.852 13.5651 370.128 13.3568 370.316 13.0859C370.508 12.8151 370.605 12.4948 370.605 12.125ZM380.406 13.9688C380.75 13.9688 381.068 13.8984 381.359 13.7578C381.651 13.6172 381.891 13.4245 382.078 13.1797C382.266 12.9297 382.372 12.6458 382.398 12.3281H383.773C383.747 12.8281 383.578 13.2943 383.266 13.7266C382.958 14.1536 382.555 14.5 382.055 14.7656C381.555 15.026 381.005 15.1562 380.406 15.1562C379.771 15.1562 379.216 15.0443 378.742 14.8203C378.273 14.5964 377.883 14.2891 377.57 13.8984C377.263 13.5078 377.031 13.0599 376.875 12.5547C376.724 12.0443 376.648 11.5052 376.648 10.9375V10.6094C376.648 10.0417 376.724 9.50521 376.875 9C377.031 8.48958 377.263 8.03906 377.57 7.64844C377.883 7.25781 378.273 6.95052 378.742 6.72656C379.216 6.5026 379.771 6.39062 380.406 6.39062C381.068 6.39062 381.646 6.52604 382.141 6.79688C382.635 7.0625 383.023 7.42708 383.305 7.89062C383.591 8.34896 383.747 8.86979 383.773 9.45312H382.398C382.372 9.10417 382.273 8.78906 382.102 8.50781C381.935 8.22656 381.706 8.0026 381.414 7.83594C381.128 7.66406 380.792 7.57812 380.406 7.57812C379.964 7.57812 379.591 7.66667 379.289 7.84375C378.992 8.01562 378.755 8.25 378.578 8.54688C378.406 8.83854 378.281 9.16406 378.203 9.52344C378.13 9.8776 378.094 10.2396 378.094 10.6094V10.9375C378.094 11.3073 378.13 11.6719 378.203 12.0312C378.276 12.3906 378.398 12.7161 378.57 13.0078C378.747 13.2995 378.984 13.5339 379.281 13.7109C379.583 13.8828 379.958 13.9688 380.406 13.9688ZM390.044 7.875V15H388.598V6.54688H390.005L390.044 7.875ZM392.684 6.5L392.677 7.84375C392.557 7.81771 392.442 7.80208 392.333 7.79688C392.229 7.78646 392.109 7.78125 391.973 7.78125C391.64 7.78125 391.346 7.83333 391.091 7.9375C390.835 8.04167 390.619 8.1875 390.442 8.375C390.265 8.5625 390.124 8.78646 390.02 9.04688C389.921 9.30208 389.856 9.58333 389.825 9.89062L389.419 10.125C389.419 9.61458 389.468 9.13542 389.567 8.6875C389.671 8.23958 389.83 7.84375 390.044 7.5C390.257 7.15104 390.528 6.88021 390.856 6.6875C391.19 6.48958 391.585 6.39062 392.044 6.39062C392.148 6.39062 392.268 6.40365 392.403 6.42969C392.539 6.45052 392.632 6.47396 392.684 6.5ZM398.791 6.54688V15H397.337V6.54688H398.791ZM397.228 4.30469C397.228 4.07031 397.298 3.8724 397.439 3.71094C397.585 3.54948 397.798 3.46875 398.08 3.46875C398.356 3.46875 398.567 3.54948 398.712 3.71094C398.864 3.8724 398.939 4.07031 398.939 4.30469C398.939 4.52865 398.864 4.72135 398.712 4.88281C398.567 5.03906 398.356 5.11719 398.08 5.11719C397.798 5.11719 397.585 5.03906 397.439 4.88281C397.298 4.72135 397.228 4.52865 397.228 4.30469ZM405.756 8.17188V18.25H404.303V6.54688H405.631L405.756 8.17188ZM411.452 10.7031V10.8672C411.452 11.4818 411.379 12.0521 411.233 12.5781C411.087 13.099 410.873 13.5521 410.592 13.9375C410.316 14.3229 409.975 14.6224 409.569 14.8359C409.163 15.0495 408.696 15.1562 408.17 15.1562C407.634 15.1562 407.16 15.0677 406.748 14.8906C406.337 14.7135 405.988 14.4557 405.702 14.1172C405.415 13.7786 405.186 13.3724 405.014 12.8984C404.847 12.4245 404.733 11.8906 404.67 11.2969V10.4219C404.733 9.79688 404.85 9.23698 405.022 8.74219C405.194 8.2474 405.42 7.82552 405.702 7.47656C405.988 7.1224 406.334 6.85417 406.741 6.67188C407.147 6.48438 407.616 6.39062 408.147 6.39062C408.678 6.39062 409.149 6.49479 409.561 6.70312C409.972 6.90625 410.319 7.19792 410.6 7.57812C410.881 7.95833 411.092 8.41406 411.233 8.94531C411.379 9.47135 411.452 10.0573 411.452 10.7031ZM409.998 10.8672V10.7031C409.998 10.2812 409.954 9.88542 409.866 9.51562C409.777 9.14062 409.639 8.8125 409.452 8.53125C409.269 8.24479 409.035 8.02083 408.748 7.85938C408.462 7.69271 408.121 7.60938 407.725 7.60938C407.36 7.60938 407.043 7.67188 406.772 7.79688C406.506 7.92188 406.28 8.09115 406.092 8.30469C405.905 8.51302 405.751 8.7526 405.631 9.02344C405.517 9.28906 405.431 9.5651 405.373 9.85156V11.875C405.478 12.2396 405.623 12.5833 405.811 12.9062C405.998 13.224 406.248 13.4818 406.561 13.6797C406.873 13.8724 407.267 13.9688 407.741 13.9688C408.131 13.9688 408.467 13.888 408.748 13.7266C409.035 13.5599 409.269 13.3333 409.452 13.0469C409.639 12.7604 409.777 12.4323 409.866 12.0625C409.954 11.6875 409.998 11.2891 409.998 10.8672ZM420.034 6.54688V7.65625H415.464V6.54688H420.034ZM417.011 4.49219H418.456V12.9062C418.456 13.1927 418.501 13.4089 418.589 13.5547C418.678 13.7005 418.792 13.7969 418.933 13.8438C419.073 13.8906 419.224 13.9141 419.386 13.9141C419.506 13.9141 419.631 13.9036 419.761 13.8828C419.896 13.8568 419.998 13.8359 420.066 13.8203L420.073 15C419.959 15.0365 419.808 15.0703 419.62 15.1016C419.438 15.138 419.217 15.1562 418.956 15.1562C418.602 15.1562 418.277 15.0859 417.98 14.9453C417.683 14.8047 417.446 14.5703 417.269 14.2422C417.097 13.9089 417.011 13.4609 417.011 12.8984V4.49219Z" fill="white"/>
<path d="M91.9594 34.1392C91.5439 33.6267 91.022 33.2139 90.4311 32.9305C89.8402 32.6472 89.195 32.5001 88.5417 32.5H26.5625C25.3884 32.5 24.2623 32.9741 23.4321 33.818C22.6018 34.6619 22.1354 35.8065 22.1354 37C22.1354 38.1935 22.6018 39.3381 23.4321 40.182C24.2623 41.0259 25.3884 41.5 26.5625 41.5H83.1678L79.7105 59.5H22.1354C20.9613 59.5 19.8352 59.9741 19.005 60.818C18.1748 61.6619 17.7083 62.8065 17.7083 64C17.7083 65.1935 18.1748 66.3381 19.005 67.182C19.8352 68.0259 20.9613 68.5 22.1354 68.5H77.982L72.835 95.2979L44.8415 104.282L20.8903 96.636L21.7917 91.8438C22.0118 90.6713 21.7648 89.4579 21.1048 88.4706C20.4448 87.4833 19.426 86.8029 18.2725 86.5791C17.119 86.3553 15.9253 86.6065 14.954 87.2773C13.9827 87.9482 13.3133 88.9838 13.0932 90.1562L11.4546 98.886C11.2517 99.9699 11.4473 101.092 12.0043 102.039C12.5614 102.986 13.4411 103.692 14.4766 104.023L43.5186 113.293C44.3849 113.57 45.3137 113.569 46.1796 113.291L78.01 103.076C78.7688 102.832 79.4488 102.385 79.9787 101.781C80.5086 101.178 80.8687 100.44 81.0212 99.6463L92.8866 37.8613C93.0117 37.2098 92.9934 36.5382 92.8331 35.8947C92.6728 35.2512 92.3744 34.6517 91.9594 34.1392V34.1392Z" fill="white"/>
<path d="M201.29 29.4634C200.875 29.0024 200.37 28.6343 199.808 28.3823C199.246 28.1304 198.638 28.0002 198.023 28H120.727C120.112 28.0002 119.504 28.1304 118.942 28.3823C118.38 28.6343 117.875 29.0023 117.46 29.4632C117.046 29.924 116.73 30.4676 116.533 31.0593C116.336 31.6509 116.262 32.2778 116.317 32.8999L123.046 109.4C123.126 110.312 123.477 111.177 124.054 111.88C124.63 112.583 125.403 113.091 126.271 113.335L158.147 122.335C158.533 122.445 158.931 122.5 159.332 122.5C159.731 122.5 160.129 122.445 160.514 122.337L192.477 113.337C193.345 113.093 194.119 112.584 194.695 111.881C195.272 111.177 195.624 110.312 195.704 109.4L202.433 32.8999C202.488 32.2778 202.414 31.651 202.217 31.0593C202.02 30.4677 201.704 29.9242 201.29 29.4634V29.4634ZM187.157 105.495L159.334 113.331L131.593 105.498L125.567 37H193.183L187.157 105.495ZM140.869 77.5H171.394L169.945 92.2195L158.577 96.346L144.572 91.2615C144.024 91.0619 143.443 90.9739 142.862 91.0027C142.281 91.0316 141.711 91.1765 141.185 91.4294C140.659 91.6823 140.187 92.0381 139.796 92.4765C139.405 92.9148 139.103 93.4272 138.908 93.9842C138.712 94.5413 138.626 95.1321 138.655 95.7229C138.684 96.3136 138.828 96.8928 139.077 97.4272C139.326 97.9616 139.677 98.4408 140.109 98.8374C140.541 99.234 141.045 99.5402 141.593 99.7385L157.088 105.364C158.051 105.712 159.103 105.712 160.067 105.364L175.562 99.7385C176.351 99.4518 177.043 98.9435 177.56 98.2726C178.076 97.6017 178.394 96.7957 178.478 95.9482L180.691 73.4482C180.752 72.8227 180.684 72.191 180.49 71.5939C180.297 70.9968 179.983 70.4476 179.568 69.9814C179.153 69.5153 178.646 69.1427 178.081 68.8876C177.516 68.6324 176.904 68.5004 176.286 68.5H144.875L143.547 55H178.499C179.673 55 180.799 54.5259 181.63 53.682C182.46 52.8381 182.926 51.6935 182.926 50.5C182.926 49.3065 182.46 48.1619 181.63 47.318C180.799 46.4741 179.673 46 178.499 46H138.655C138.037 46.0004 137.425 46.1324 136.86 46.3876C136.295 46.6427 135.789 47.0153 135.374 47.4815C134.959 47.9476 134.644 48.4969 134.451 49.0939C134.257 49.691 134.189 50.3227 134.25 50.9482L136.463 73.4482C136.573 74.5586 137.084 75.588 137.898 76.3367C138.712 77.0854 139.771 77.5 140.869 77.5Z" fill="white"/>
<path d="M261.654 65.9707C260.3 66.7654 259.208 67.9506 258.516 69.3762C257.824 70.8018 257.564 72.4038 257.768 73.9797C257.972 75.5557 258.632 77.0347 259.663 78.2297C260.694 79.4248 262.05 80.2822 263.561 80.6936C265.071 81.1049 266.668 81.0518 268.149 80.5408C269.63 80.0298 270.928 79.084 271.88 77.8229C272.832 76.5618 273.394 75.0421 273.497 73.4559C273.599 71.8698 273.236 70.2885 272.454 68.912C271.406 67.0663 269.679 65.7195 267.653 65.1679C265.628 64.6163 263.47 64.9051 261.654 65.9707V65.9707ZM297.091 74.6902C296.572 74.0872 296.025 73.4826 295.448 72.8764C295.851 72.4463 296.24 72.0165 296.617 71.5872C303.726 63.468 306.727 55.3255 303.946 50.4303C301.281 45.7368 293.35 44.3381 283.423 46.3002C282.445 46.4947 281.472 46.714 280.505 46.9583C280.32 46.3096 280.123 45.6646 279.915 45.0233C276.547 34.7069 271.106 27.9964 265.546 28C260.214 28.0025 255.06 34.2869 251.773 44.0088C251.449 44.9678 251.15 45.9349 250.875 46.9099C250.228 46.7487 249.579 46.5997 248.927 46.4631C238.453 44.2771 230.016 45.7168 227.241 50.6148C224.581 55.3117 227.363 62.989 234.008 70.7393C234.667 71.5061 235.345 72.2558 236.041 72.9882C235.22 73.8477 234.443 74.7067 233.718 75.5609C227.235 83.2019 224.611 90.7536 227.268 95.4303C230.011 100.261 238.329 101.84 248.453 99.8149C249.273 99.6495 250.089 99.4635 250.901 99.2569C251.198 100.312 251.524 101.357 251.879 102.393C255.152 111.92 260.276 118.002 265.59 118C271.077 117.997 276.577 111.462 279.91 101.536C280.173 100.751 280.422 99.9368 280.658 99.098C281.707 99.3631 282.762 99.5983 283.823 99.8036C293.578 101.68 301.321 100.204 303.973 95.5241C306.711 90.6899 303.888 82.582 297.091 74.6902H297.091ZM230.519 52.5333C232.227 49.5183 239.122 48.342 248.166 50.2293C248.744 50.3501 249.332 50.4851 249.929 50.6343C249.046 54.6045 248.423 58.6298 248.064 62.6838C244.801 65.0173 241.69 67.563 238.75 70.305C238.103 69.6241 237.472 68.9268 236.859 68.2129L236.859 68.2132C231.166 61.5726 228.916 55.3636 230.519 52.5333ZM247.726 78.3097C245.465 76.57 243.365 74.7878 241.458 72.9952C243.363 71.2138 245.465 69.4375 247.721 67.7025C247.64 69.47 247.6 71.2388 247.601 73.0089C247.602 74.7765 247.643 76.5434 247.726 78.3097V78.3097ZM247.723 96.0424C243.886 96.9097 239.924 97.0518 236.037 96.4616C234.971 96.3772 233.934 96.0716 232.989 95.5636C232.044 95.0556 231.211 94.3561 230.543 93.5082C228.931 90.6701 231.037 84.6072 236.583 78.0721C237.28 77.2531 238 76.4555 238.743 75.6793C241.683 78.4357 244.799 80.9913 248.071 83.3296C248.435 87.4354 249.065 91.5123 249.958 95.5336C249.217 95.7219 248.472 95.8915 247.723 96.0424ZM279.16 59.8653C277.675 58.9143 276.172 57.9938 274.651 57.1039C273.154 56.2279 271.638 55.3848 270.105 54.5746C272.73 53.4526 275.311 52.4943 277.802 51.7134C278.389 54.4058 278.843 57.1265 279.16 59.8653V59.8653ZM255.35 45.2584C258.166 36.9283 262.334 31.8461 265.548 31.8447C268.97 31.843 273.417 37.3268 276.325 46.234C276.513 46.8147 276.692 47.3986 276.86 47.9858C273.04 49.1901 269.303 50.6501 265.672 52.3562C262.057 50.63 258.331 49.1538 254.521 47.9374C254.775 47.0377 255.052 46.1447 255.35 45.2584ZM253.577 51.6655C256.176 52.4971 258.732 53.4613 261.235 54.5545C258.133 56.1814 255.112 57.9535 252.171 59.8708C252.526 56.9998 252.999 54.2491 253.577 51.6655ZM252.177 86.1386C253.644 87.0929 255.132 88.012 256.642 88.8958C258.182 89.797 259.742 90.6604 261.323 91.4859C258.801 92.6169 256.223 93.6156 253.6 94.478C253.015 91.8586 252.537 89.0596 252.177 86.1386ZM276.33 100.293C275.152 104.105 273.294 107.665 270.849 110.793L270.849 110.793C270.244 111.689 269.466 112.45 268.561 113.028C267.656 113.606 266.644 113.99 265.588 114.155C262.364 114.157 258.249 109.272 255.45 101.125C255.12 100.162 254.817 99.19 254.54 98.2092C258.369 96.9536 262.11 95.4356 265.737 93.6656C269.397 95.3827 273.164 96.8536 277.014 98.0689C276.804 98.8158 276.576 99.5573 276.33 100.293ZM277.934 94.3344C275.414 93.5424 272.796 92.568 270.133 91.4296C271.634 90.6265 273.146 89.7783 274.669 88.8851C276.232 87.9678 277.755 87.0274 279.238 86.0641C278.943 88.8418 278.507 91.6022 277.934 94.3345V94.3344ZM279.91 72.9923C279.913 75.7252 279.829 78.4558 279.658 81.1843C277.477 82.6847 275.174 84.1498 272.778 85.5557C270.392 86.9559 268.028 88.2427 265.709 89.4073C263.269 88.2185 260.876 86.9375 258.529 85.5643C256.196 84.1993 253.917 82.7458 251.691 81.2038C251.488 78.4761 251.385 75.7436 251.384 73.006L251.384 73.0069C251.382 70.2713 251.482 67.5385 251.685 64.8086C253.865 63.2949 256.151 61.831 258.515 60.444C260.889 59.0504 263.283 57.7691 265.663 56.6079C268.073 57.7985 270.44 59.0745 272.763 60.4358C275.095 61.7978 277.381 63.2358 279.621 64.7498C279.813 67.4931 279.91 70.2406 279.91 72.9923H279.91ZM284.145 50.0746C292.651 48.3928 299.064 49.5241 300.671 52.3526C302.382 55.3659 299.929 62.0208 293.792 69.0312L293.792 69.0315C293.453 69.4182 293.101 69.8065 292.736 70.1965C289.746 67.4487 286.575 64.9111 283.245 62.6012C282.909 58.5915 282.309 54.6092 281.45 50.681C282.366 50.4519 283.264 50.2498 284.145 50.0746V50.0746ZM283.57 67.5557C285.816 69.2226 287.975 71.0067 290.04 72.901C287.985 74.8264 285.832 76.6414 283.591 78.3384C283.659 76.5567 283.693 74.774 283.692 72.9905C283.691 71.1785 283.65 69.3669 283.57 67.5557V67.5557ZM300.694 93.6051C299.085 96.4454 292.868 97.6297 284.526 96.0254C283.57 95.842 282.589 95.6236 281.583 95.3704C282.421 91.3916 282.995 87.3598 283.298 83.3024C286.622 80.9522 289.784 78.3723 292.759 75.581C293.28 76.1308 293.775 76.6782 294.245 77.2229V77.2226C296.906 80.1635 299.012 83.5773 300.457 87.2932C300.919 88.2729 301.178 89.3385 301.219 90.4241C301.26 91.5098 301.081 92.5924 300.694 93.6051V93.6051Z" fill="white"/>
<path d="M382.845 85.973C379.516 86.3028 376.163 85.6822 373.162 84.1809C372.482 83.6281 371.921 82.9395 371.514 82.1576C371.106 81.3757 370.86 80.5172 370.792 79.6351C370.79 79.5031 370.763 79.3726 370.712 79.2514C370.66 79.1301 370.586 79.0204 370.493 78.9285C370.399 78.8367 370.289 78.7646 370.168 78.7164C370.047 78.6682 369.918 78.6448 369.788 78.6477C368.387 78.6303 366.985 78.6342 365.584 78.6457C365.339 78.6203 365.094 78.6941 364.903 78.851C364.711 79.008 364.588 79.2354 364.56 79.484C364.48 81.0317 364.737 82.5783 365.314 84.0131C365.89 85.448 366.771 86.7358 367.894 87.7844C370.728 90.0325 374.169 91.3483 377.758 91.5563C381.498 91.9972 385.283 91.8339 388.973 91.0724C391.806 90.5352 394.403 89.1124 396.402 87.0025C397.507 85.6174 398.248 83.9694 398.555 82.2135C398.861 80.4575 398.724 78.6511 398.155 76.964C397.678 75.7747 396.938 74.7124 395.994 73.8586C395.05 73.0048 393.926 72.3822 392.708 72.0386C387.038 70.0163 380.913 70.1692 375.133 68.6325C374.129 68.3114 372.903 67.9629 372.456 66.883C372.197 66.123 372.18 65.2998 372.405 64.5291C372.631 63.7584 373.089 63.079 373.714 62.5865C375.529 61.5321 377.596 61.0091 379.685 61.0753C382.521 60.804 385.379 61.2197 388.026 62.2885C388.821 62.7638 389.505 63.4094 390.03 64.1804C390.555 64.9514 390.909 65.8294 391.067 66.7533C391.074 67.026 391.182 67.2859 391.368 67.4821C391.555 67.6783 391.806 67.7966 392.074 67.8137C393.466 67.8426 394.858 67.8214 396.249 67.8234C396.491 67.8527 396.734 67.7925 396.936 67.6539C397.137 67.5152 397.282 67.3074 397.344 67.0686C397.357 65.1607 396.879 63.2825 395.957 61.6203C395.036 59.958 393.703 58.5693 392.091 57.5916C387.642 55.5045 382.703 54.7364 377.844 55.3757V55.3753C374.283 55.5237 370.881 56.9131 368.21 59.31C366.983 60.6538 366.153 62.3207 365.813 64.1208C365.473 65.921 365.637 67.782 366.287 69.4919C366.793 70.6374 367.537 71.6577 368.468 72.4825C369.399 73.3074 370.495 73.9172 371.681 74.2699C377.332 76.3447 383.525 75.6789 389.231 77.5136C390.343 77.897 391.638 78.4834 391.979 79.7414C392.162 80.4953 392.148 81.2847 391.939 82.0315C391.729 82.7783 391.332 83.4565 390.785 83.9991C388.412 85.4976 385.631 86.189 382.845 85.973V85.973ZM408.606 47.9689C397.573 41.6269 386.537 35.2906 375.498 28.9601C374.391 28.3306 373.143 28 371.874 28C370.605 28 369.357 28.3306 368.25 28.9601C357.254 35.2715 346.258 41.5826 335.262 47.8934C334.192 48.4861 333.298 49.3589 332.672 50.4214C332.045 51.4838 331.711 52.6972 331.701 53.9356V92.0696C331.719 93.3306 332.072 94.5631 332.723 95.6366C333.374 96.7101 334.299 97.5846 335.399 98.1671C338.558 99.9148 341.627 101.84 344.843 103.472C346.699 104.481 348.76 105.036 350.864 105.095C352.968 105.154 355.057 104.714 356.965 103.811C358.393 102.902 359.554 101.62 360.329 100.099C361.103 98.579 361.463 96.8751 361.369 95.1654C361.394 82.5803 361.373 69.9946 361.379 57.4092C361.4 57.2717 361.393 57.131 361.357 56.9964C361.321 56.8619 361.258 56.7366 361.172 56.6286C361.085 56.5206 360.977 56.4325 360.854 56.3699C360.732 56.3073 360.598 56.2718 360.461 56.2656C359.056 56.2425 357.649 56.2521 356.244 56.2617C356.113 56.2499 355.982 56.2661 355.859 56.3093C355.735 56.3526 355.622 56.4219 355.527 56.5127C355.432 56.6035 355.356 56.7137 355.306 56.8362C355.255 56.9586 355.231 57.0906 355.234 57.2233C355.215 69.7277 355.238 82.2356 355.223 94.7419C355.226 95.6051 354.969 96.4487 354.488 97.1595C354.006 97.8704 353.321 98.4144 352.527 98.7187C351.612 98.9936 350.65 99.0692 349.704 98.9406C348.758 98.8119 347.849 98.4818 347.037 97.9719C344.111 96.2919 341.185 94.6121 338.259 92.9324C338.065 92.839 337.904 92.6874 337.797 92.4981C337.69 92.3088 337.643 92.0909 337.662 91.8736C337.662 79.2921 337.662 66.7112 337.662 54.131C337.642 53.8862 337.698 53.6412 337.823 53.4309C337.948 53.2207 338.135 53.0558 338.358 52.9601C349.317 46.6859 360.274 40.4052 371.229 34.1179C371.42 33.9858 371.645 33.9153 371.875 33.9156C372.106 33.916 372.331 33.9872 372.521 34.1198C383.48 40.3959 394.438 46.6742 405.396 52.9547C405.618 53.0532 405.803 53.2195 405.927 53.4304C406.051 53.6413 406.107 53.8863 406.087 54.1311C406.085 66.7104 406.084 79.2906 406.084 91.8719C406.103 92.0901 406.057 92.3091 405.952 92.5004C405.847 92.6917 405.688 92.8463 405.495 92.9442C394.704 99.1468 383.906 105.34 373.103 111.525C372.587 111.817 371.976 112.288 371.372 111.934C368.543 110.306 365.748 108.615 362.928 106.971C362.784 106.859 362.611 106.793 362.429 106.782C362.248 106.771 362.068 106.815 361.912 106.909C360.67 107.649 359.362 108.269 358.007 108.761C357.395 109.013 356.643 109.085 356.223 109.661C356.759 110.254 357.409 110.73 358.132 111.059C361.43 113 364.73 114.939 368.031 116.877C369.123 117.574 370.379 117.96 371.667 117.997C372.956 118.033 374.231 117.718 375.359 117.084C386.357 110.781 397.353 104.475 408.349 98.1659C409.449 97.5823 410.373 96.7078 411.024 95.6348C411.675 94.5618 412.029 93.3301 412.049 92.0696V53.9356C412.04 52.7216 411.717 51.5314 411.113 50.4843C410.508 49.4371 409.644 48.5697 408.606 47.9689H408.606Z" fill="white"/>
</svg>
